<?xml version="1.0" encoding="UTF-8" standalone="no"?>
<!-- Created with Inkscape (http://www.inkscape.org/) -->

<svg
   xmlns:dc="http://purl.org/dc/elements/1.1/"
   xmlns:cc="http://creativecommons.org/ns#"
   xmlns:rdf="http://www.w3.org/1999/02/22-rdf-syntax-ns#"
   xmlns:svg="http://www.w3.org/2000/svg"
   xmlns="http://www.w3.org/2000/svg"
   xmlns:xlink="http://www.w3.org/1999/xlink"
   xmlns:sodipodi="http://sodipodi.sourceforge.net/DTD/sodipodi-0.dtd"
   xmlns:inkscape="http://www.inkscape.org/namespaces/inkscape"
   width="248.03149"
   height="105.23622"
   id="svg2"
   version="1.1"
   inkscape:version="0.47 r22583"
   enable-background="new"
   sodipodi:docname="gnuk-sticker.svg">
  <defs
     id="defs4">
    <linearGradient
       inkscape:collect="always"
       id="linearGradient4290">
      <stop
         style="stop-color:#000734;stop-opacity:1;"
         offset="0"
         id="stop4292" />
      <stop
         style="stop-color:#000734;stop-opacity:0;"
         offset="1"
         id="stop4294" />
    </linearGradient>
    <inkscape:perspective
       sodipodi:type="inkscape:persp3d"
       inkscape:vp_x="0 : 526.18109 : 1"
       inkscape:vp_y="0 : 1000 : 0"
       inkscape:vp_z="744.09448 : 526.18109 : 1"
       inkscape:persp3d-origin="372.04724 : 350.78739 : 1"
       id="perspective10" />
    <inkscape:perspective
       id="perspective2884"
       inkscape:persp3d-origin="0.5 : 0.33333333 : 1"
       inkscape:vp_z="1 : 0.5 : 1"
       inkscape:vp_y="0 : 1000 : 0"
       inkscape:vp_x="0 : 0.5 : 1"
       sodipodi:type="inkscape:persp3d" />
    <filter
       height="1.2680969"
       y="-0.13404847"
       width="1.2847058"
       x="-0.1423529"
       id="filter0"
       inkscape:collect="always">
      <feGaussianBlur
         id="feGaussianBlur0"
         stdDeviation="2.0538481"
         inkscape:collect="always" />
    </filter>
    <radialGradient
       gradientUnits="userSpaceOnUse"
       r="80"
       fy="440"
       fx="0"
       cy="440"
       cx="0"
       id="radialGradient1"
       xlink:href="#linearGradient1"
       inkscape:collect="always" />
    <linearGradient
       id="linearGradient1">
      <stop
         id="stop0"
         offset="0"
         style="stop-color:#ffffff;stop-opacity:1;" />
      <stop
         style="stop-color:#f8fcff;stop-opacity:1;"
         offset="0.0625"
         id="stop1" />
      <stop
         style="stop-color:#f0f8ff;stop-opacity:1;"
         offset="0.17166339"
         id="stop2" />
      <stop
         style="stop-color:#ecf4ff;stop-opacity:1;"
         offset="0.30279359"
         id="stop3" />
      <stop
         id="stop4"
         offset="0.5"
         style="stop-color:#e8f0ff;stop-opacity:1;" />
      <stop
         style="stop-color:#e0ecff;stop-opacity:1;"
         offset="0.65893352"
         id="stop5" />
      <stop
         style="stop-color:#d8e8ff;stop-opacity:1;"
         offset="0.83552629"
         id="stop6" />
      <stop
         id="stop7"
         offset="1"
         style="stop-color:#d0e0ff;stop-opacity:1;" />
    </linearGradient>
    <radialGradient
       gradientUnits="userSpaceOnUse"
       gradientTransform="matrix(1,0,0,0.75369458,-1.760006,108.15135)"
       r="201.5"
       fy="750"
       fx="450"
       cy="750"
       cx="450"
       id="radialGradient0"
       xlink:href="#linearGradient0"
       inkscape:collect="always" />
    <linearGradient
       id="linearGradient0">
      <stop
         id="stop3620"
         offset="0"
         style="stop-color:#ffffff;stop-opacity:1;" />
      <stop
         style="stop-color:#c8c8e0;stop-opacity:1;"
         offset="0.07"
         id="stop3632" />
      <stop
         style="stop-color:#9696c8;stop-opacity:1;"
         offset="0.17"
         id="stop3630" />
      <stop
         style="stop-color:#6464b4;stop-opacity:1;"
         offset="0.33"
         id="stop3628" />
      <stop
         id="stop3634"
         offset="0.5"
         style="stop-color:#3232a0;stop-opacity:1;" />
      <stop
         style="stop-color:#282898;stop-opacity:1;"
         offset="0.66"
         id="stop3636" />
      <stop
         style="stop-color:#1e1e90;stop-opacity:1;"
         offset="0.85"
         id="stop3626" />
      <stop
         id="stop3622"
         offset="1"
         style="stop-color:#000088;stop-opacity:1;" />
    </linearGradient>
    <inkscape:perspective
       id="perspective10-5"
       inkscape:persp3d-origin="372.04724 : 350.78739 : 1"
       inkscape:vp_z="744.09448 : 526.18109 : 1"
       inkscape:vp_y="0 : 1000 : 0"
       inkscape:vp_x="0 : 526.18109 : 1"
       sodipodi:type="inkscape:persp3d" />
    <inkscape:perspective
       id="perspective3830"
       inkscape:persp3d-origin="0.5 : 0.33333333 : 1"
       inkscape:vp_z="1 : 0.5 : 1"
       inkscape:vp_y="0 : 1000 : 0"
       inkscape:vp_x="0 : 0.5 : 1"
       sodipodi:type="inkscape:persp3d" />
    <filter
       inkscape:collect="always"
       id="filter3875">
      <feBlend
         inkscape:collect="always"
         mode="screen"
         in2="BackgroundImage"
         id="feBlend3877" />
    </filter>
    <inkscape:perspective
       id="perspective3903"
       inkscape:persp3d-origin="0.5 : 0.33333333 : 1"
       inkscape:vp_z="1 : 0.5 : 1"
       inkscape:vp_y="0 : 1000 : 0"
       inkscape:vp_x="0 : 0.5 : 1"
       sodipodi:type="inkscape:persp3d" />
    <linearGradient
       inkscape:collect="always"
       xlink:href="#linearGradient4290"
       id="linearGradient4296"
       x1="85.996228"
       y1="1031.615"
       x2="240.89818"
       y2="1031.615"
       gradientUnits="userSpaceOnUse" />
  </defs>
  <sodipodi:namedview
     id="base"
     pagecolor="#ffffff"
     bordercolor="#666666"
     borderopacity="1.0"
     inkscape:pageopacity="0.0"
     inkscape:pageshadow="2"
     inkscape:zoom="2.8284271"
     inkscape:cx="157.8139"
     inkscape:cy="53.468164"
     inkscape:document-units="px"
     inkscape:current-layer="layer1"
     showgrid="false"
     units="mm"
     objecttolerance="10000"
     guidetolerance="10000"
     inkscape:window-width="1271"
     inkscape:window-height="718"
     inkscape:window-x="0"
     inkscape:window-y="25"
     inkscape:window-maximized="0" />
  <metadata
     id="metadata7">
    <rdf:RDF>
      <cc:Work
         rdf:about="">
        <dc:format>image/svg+xml</dc:format>
        <dc:type
           rdf:resource="http://purl.org/dc/dcmitype/StillImage" />
        <dc:title></dc:title>
      </cc:Work>
    </rdf:RDF>
  </metadata>
  <g
     inkscape:label="Layer1"
     inkscape:groupmode="layer"
     id="layer1"
     transform="translate(0,-947.12595)"
     style="display:inline"
     sodipodi:insensitive="true">
    <rect
       style="fill:#d9fffe;fill-opacity:1;stroke:#000000;stroke-width:1;stroke-miterlimit:4;stroke-opacity:1;stroke-dasharray:1,1;stroke-dashoffset:1"
       id="rect4286"
       width="248.19862"
       height="105.23622"
       x="0"
       y="947.12598" />
    <image
       y="951.12598"
       x="202.27382"
       id="image2886"
       height="28.346457"
       width="41.757679"
       xlink:href="FSIJ-s.png" />
    <text
       xml:space="preserve"
       style="font-size:52.27830124px;font-style:normal;font-variant:normal;font-weight:bold;font-stretch:normal;text-align:start;line-height:100%;writing-mode:lr-tb;text-anchor:start;fill:#032b7f;fill-opacity:1;stroke:none;font-family:Courier 10 Pitch;-inkscape-font-specification:Courier 10 Pitch Bold"
       x="94.433884"
       y="1014.9048"
       id="text2890"
       sodipodi:linespacing="100%"><tspan
         sodipodi:role="line"
         id="tspan2892"
         x="94.433884"
         y="1014.9048">GNUK</tspan></text>
    <g
       transform="matrix(-0.1014557,0,0,0.1014557,90.73972,926.6016)"
       id="layer1-6"
       inkscape:label="Layer 1">
      <path
         id="path0"
         transform="matrix(-1.76,0,0,1.76,410,560)"
         d="m 0,0 c 0,0 0,0 -76,0 0,0 -8,-9 -12,-12 -18,-15 -48,-48 -36,-84 4,-14 12,-36 12,-36 -10,6 -50,26 -66,54 -8,16 -18,30 -18,54 0,24 25,100 48,108 0,0 0,0 150,0 0,0 0,0 150,0 23,-8 48,-84 48,-108 0,-24 -10,-38 -18,-54 -16,-28 -46,-48 -66,-54 0,0 8,22 12,36 12,36 -18,69 -36,84 C 88,-9 80,0 80,0 z"
         style="fill:#000050;fill-opacity:1;stroke:#000000;stroke-width:2.29999995px;stroke-linecap:butt;stroke-linejoin:miter;stroke-opacity:1" />
      <path
         sodipodi:nodetypes="ccccccscccscccccc"
         id="path0-9"
         d="m 411.01194,560.94628 c 0,0 0,0 133.76,0 0,0 14.08,-15.84 21.12,-21.12 31.68,-26.4 84.48,-84.48 63.36,-147.84 -7.04,-24.64 -21.12,-63.36 -21.12,-63.36 17.6,10.56 38,45.76 66.16,95.04 14.08,28.16 19.18,52.8 19.18,95.04 0,42.24 -44,176 -84.48,190.08 0,0 62.5,0 -201.5,0 0,0 62.5,0 -201.5,0 -40.48,-14.08 -84.48,-147.84 -84.48,-190.08 0,-42.24 5.1,-66.88 19.18,-95.04 28.16,-49.28 30.96,-84.48 66.16,-95.04 0,0 -14.08,38.72 -21.12,63.36 -21.12,63.36 31.68,121.44 63.36,147.84 7.04,5.28 21.12,21.12 21.12,21.12 z"
         style="fill:#000040;fill-opacity:1;stroke:none"
         inkscape:connector-curvature="0" />
      <path
         id="path1"
         d="m 409.21999,592 c 0,0 90,0 90,-33 0,-20 -4,-28 -12,-40 -5,-8 -8,-18 -8,-28 -1,-13 -1,-20 8,-36 6,-9 8,-23 5,-33 -5,-14 -19,-23 -33,-25 -16,-5 -35,-4 -50,-5 -15,1 -34,0 -50,5 -14,2 -28,9 -33,25 -3,10 1,24 5,33 9,16 9,23 8,36 0,10 -3,20 -8,28 -8,12 -12,20 -12,40 0,33 90,33 90,33 z"
         style="fill:#c0c0fd;fill-opacity:1;stroke:#000000;stroke-width:4px;stroke-linecap:butt;stroke-linejoin:miter;stroke-opacity:1" />
      <path
         transform="matrix(-0.75,0,0,0.8,410,100)"
         id="path1-1"
         d="m 0,592 c 0,0 -90,0 -90,-33 0,-20 4,-28 12,-40 5,-8 8,-18 8,-28 1,-13 1,-20 -8,-36 -6,-9 -8,-23 -5,-33 5,-14 19,-23 33,-25 16,-5 35,-4 50,-5 15,1 34,0 50,5 14,2 28,9 33,25 3,10 -1,24 -5,33 -9,16 -9,23 -8,36 0,10 3,20 8,28 8,12 12,20 12,40 0,33 -90,33 -90,33 z"
         style="fill:url(#radialGradient1);fill-opacity:1;fill-rule:evenodd;stroke:#d0e0ff;stroke-width:10px;stroke-linecap:butt;stroke-linejoin:miter;stroke-opacity:1" />
      <path
         sodipodi:nodetypes="ccccsc"
         id="path1-2"
         d="m 344.11439,411.54794 c 7.16035,-2.82917 12.68023,-7.05316 25.88561,-1.83463 -11.82218,3.36559 -30.19974,8.74598 -28.4554,30.10894 0,1.43822 0.19526,2.84651 0.53302,4.18858 -5.07909,-3.45362 -6.70449,-9.04022 -6.70449,-15.93734 0,-10.74221 5.00989,-12.63545 8.74126,-16.52555 z"
         style="fill:#ffffff;fill-opacity:1;fill-rule:evenodd;stroke:none;filter:url(#filter0)" />
      <path
         transform="matrix(-1,0,0,1,949.00681,5.38669)"
         sodipodi:nodetypes="ccccsc"
         id="path1-3"
         d="m 474.68123,406.16125 c 7.16035,-2.82917 12.68023,-7.05316 25.88561,-1.83463 -11.82218,3.36559 -30.19974,8.74598 -28.4554,30.10894 0,1.43822 0.19526,2.84651 0.53302,4.18858 -5.07909,-3.45362 -6.70449,-9.04022 -6.70449,-15.93734 0,-10.74221 5.00989,-12.63545 8.74126,-16.52555 z"
         style="fill:#ffffff;fill-opacity:1;fill-rule:evenodd;stroke:none;filter:url(#filter0)" />
      <path
         inkscape:connector-curvature="0"
         id="path2"
         d="M 236.90125,452.90625 C 135.34805,496.35376 97.060607,634.496 151.37,761.4375 c 50.02335,116.92341 158.1859,159.40625 257.75,159.40625 99.5641,0 207.72665,-42.48284 257.75,-159.40625 C 721.17939,634.496 682.89195,496.35376 581.33875,452.90625 526.07714,429.26367 466.8919,524.375 409.12,524.375 c -57.7719,0 -116.77668,-94.67646 -172.21875,-71.46875 z"
         style="fill:#afcfff;fill-opacity:1;stroke:#000000;stroke-width:4px;stroke-linecap:butt;stroke-linejoin:miter;stroke-opacity:1" />
      <path
         inkscape:connector-curvature="0"
         d="m 538.23999,720 a 130,150 0 0 1 -260,0 130,150 0 1 1 260,0 z"
         id="path3"
         style="fill:url(#radialGradient0);fill-opacity:1;fill-rule:evenodd;stroke:#000000;stroke-width:4px;stroke-linecap:butt;stroke-linejoin:miter;stroke-opacity:1" />
      <path
         inkscape:connector-curvature="0"
         id="path4"
         d="m 538.30032,722.21875 c 56.32313,26.16396 100.82185,68.68738 119.76563,119.4375 33.50451,82.59901 -5.55269,179.72665 -93.67188,230.71875 -89.66782,55.4574 -224.43374,55.4574 -314.10156,0 -88.11919,-50.9921 -127.13733,-148.11974 -93.63281,-230.71875 18.61816,-50.41349 63.06491,-92.92973 119.25781,-119.1875 11.1304,10.32118 18.58377,23.0939 22.34375,36.6875 -5.94376,3.59375 -11.63988,7.47175 -16.99219,11.625 -73.95399,55.19241 -81.85302,155.28934 -18.59375,218.125 47.75721,51.30795 139.68,72.55545 213.4375,46.68755 87.41094,-28.2229 135.47694,-110.93384 113.94531,-183.2813 -9.09953,-36.85675 -36.47131,-70.33241 -73.67187,-92.96875 2.51871,-9.1715 6.69761,-18.00492 12.57812,-26 2.55237,-3.99852 5.70954,-7.71801 9.33594,-11.125 z"
         style="fill:#ffffff;fill-opacity:1;stroke:#000000;stroke-width:4.47213602px;stroke-opacity:1" />
    </g>
    <text
       xml:space="preserve"
       style="font-size:18px;font-style:italic;font-variant:normal;font-weight:bold;font-stretch:normal;text-align:start;line-height:85.00000238%;writing-mode:lr-tb;text-anchor:start;fill:#120054;fill-opacity:1;stroke:none;display:inline;font-family:Gentium Basic;-inkscape-font-specification:Gentium Basic Bold Italic"
       x="98.368591"
       y="1038.1145"
       id="text3817"
       sodipodi:linespacing="85.000002%"><tspan
         sodipodi:role="line"
         id="tspan4288"
         style="fill:#120054;fill-opacity:1"
         x="98.368591"
         y="1038.1145">GnuPG USB Token</tspan></text>
  </g>
</svg>
