<?xml version="1.0" encoding="UTF-8" standalone="no"?>
<!-- Created with Inkscape (http://www.inkscape.org/) -->

<svg
   xmlns:dc="http://purl.org/dc/elements/1.1/"
   xmlns:cc="http://creativecommons.org/ns#"
   xmlns:rdf="http://www.w3.org/1999/02/22-rdf-syntax-ns#"
   xmlns:svg="http://www.w3.org/2000/svg"
   xmlns="http://www.w3.org/2000/svg"
   xmlns:sodipodi="http://sodipodi.sourceforge.net/DTD/sodipodi-0.dtd"
   xmlns:inkscape="http://www.inkscape.org/namespaces/inkscape"
   width="1052.3622"
   height="744.09448"
   id="svg2"
   version="1.1"
   inkscape:version="0.47 r22583"
   sodipodi:docname="gnuk.svg"
   inkscape:export-filename="/home/gniibe/gnuk.png"
   inkscape:export-xdpi="30"
   inkscape:export-ydpi="30">
  <defs
     id="defs4">
    <inkscape:perspective
       sodipodi:type="inkscape:persp3d"
       inkscape:vp_x="0 : 526.18109 : 1"
       inkscape:vp_y="0 : 1000 : 0"
       inkscape:vp_z="744.09448 : 526.18109 : 1"
       inkscape:persp3d-origin="372.04724 : 350.78739 : 1"
       id="perspective10" />
    <inkscape:perspective
       id="perspective2830"
       inkscape:persp3d-origin="0.5 : 0.33333333 : 1"
       inkscape:vp_z="1 : 0.5 : 1"
       inkscape:vp_y="0 : 1000 : 0"
       inkscape:vp_x="0 : 0.5 : 1"
       sodipodi:type="inkscape:persp3d" />
    <inkscape:perspective
       id="perspective3627"
       inkscape:persp3d-origin="0.5 : 0.33333333 : 1"
       inkscape:vp_z="1 : 0.5 : 1"
       inkscape:vp_y="0 : 1000 : 0"
       inkscape:vp_x="0 : 0.5 : 1"
       sodipodi:type="inkscape:persp3d" />
    <inkscape:perspective
       id="perspective3682"
       inkscape:persp3d-origin="0.5 : 0.33333333 : 1"
       inkscape:vp_z="1 : 0.5 : 1"
       inkscape:vp_y="0 : 1000 : 0"
       inkscape:vp_x="0 : 0.5 : 1"
       sodipodi:type="inkscape:persp3d" />
  </defs>
  <sodipodi:namedview
     id="base"
     pagecolor="#ffffff"
     bordercolor="#666666"
     borderopacity="1.0"
     inkscape:pageopacity="0"
     inkscape:pageshadow="2"
     inkscape:zoom="0.70032923"
     inkscape:cx="487.47769"
     inkscape:cy="434.02158"
     inkscape:document-units="px"
     inkscape:current-layer="layer1"
     showgrid="false"
     borderlayer="true"
     inkscape:showpageshadow="false"
     inkscape:object-paths="true"
     inkscape:snap-smooth-nodes="true"
     inkscape:object-nodes="true"
     inkscape:snap-intersection-paths="true"
     inkscape:window-width="876"
     inkscape:window-height="747"
     inkscape:window-x="29"
     inkscape:window-y="26"
     inkscape:window-maximized="0">
    <inkscape:grid
       type="xygrid"
       id="grid2816"
       empspacing="3"
       visible="true"
       enabled="true"
       snapvisiblegridlinesonly="true" />
  </sodipodi:namedview>
  <metadata
     id="metadata7">
    <rdf:RDF>
      <cc:Work
         rdf:about="">
        <dc:format>image/svg+xml</dc:format>
        <dc:type
           rdf:resource="http://purl.org/dc/dcmitype/StillImage" />
        <dc:title></dc:title>
      </cc:Work>
    </rdf:RDF>
  </metadata>
  <g
     inkscape:label="レイヤー 1"
     inkscape:groupmode="layer"
     id="layer1"
     transform="translate(0,-308.2677)">
    <path
       style="fill:#0000ff;fill-opacity:1;stroke:#000000;stroke-width:1px;stroke-linecap:butt;stroke-linejoin:miter;stroke-opacity:1"
       d="m 726.1305,600.36218 c 22.86832,-8.30901 48,-83.66895 48,-108 0,-24.33105 -10.30662,-51.88803 -24,-72 -13.12651,-19.27938 -60,-36 -60,-36 0,0 7.82067,22.19662 12,36 0,36 -37.18539,69.08582 -36,84 -4.37468,3.58638 -12,12 -12,12 -26.07681,26.07681 37.33885,96.59384 72,84 z"
       id="path3672-0"
       sodipodi:nodetypes="cssccccc" />
    <path
       style="fill:#0000ff;fill-opacity:1;stroke:#000000;stroke-width:1px;stroke-linecap:butt;stroke-linejoin:miter;stroke-opacity:1"
       d="m 204,600.36218 c -22.86832,-8.30901 -48,-83.66895 -48,-108 0,-24.33105 10.30662,-51.88803 24,-72 13.12651,-19.27938 60,-36 60,-36 0,0 -7.82067,22.19662 -12,36 0,36 37.18539,69.08582 36,84 4.37468,3.58638 12,12 12,12 26.07681,26.07681 -37.33885,96.59384 -72,84 z"
       id="path3672"
       sodipodi:nodetypes="cssccccc" />
    <path
       style="fill:#ffffff;fill-opacity:1;stroke:#000000;stroke-width:1px;stroke-linecap:butt;stroke-linejoin:miter;stroke-opacity:1"
       d="m 387.06525,552.36218 c -10.14964,-12.99942 9.9849,-31.63115 12,-48 1.4662,-11.91009 2.75704,-24.32101 0,-36 -2.05497,-8.705 -9.94503,-15.295 -12,-24 -1.83802,-7.78599 -3.06147,-16.60896 0,-24 4.32957,-10.4525 13.5475,-19.67043 24,-24 33.25966,-13.7766 74.74034,-13.7766 108,0 10.4525,4.32957 19.67043,13.5475 24,24 3.06147,7.39104 1.83802,16.21401 0,24 -2.05497,8.705 -9.94503,15.295 -12,24 -2.75704,11.67899 -1.4662,24.08991 0,36 2.0151,16.36885 22.14964,35.00058 12,48 -32.00143,40.98668 -123.99857,40.98668 -156,0 z"
       id="path3670"
       sodipodi:nodetypes="caaaaaaaaaaaa" />
    <path
       style="fill:#ffffaf;fill-opacity:1;stroke:#000000;stroke-width:1px;stroke-linecap:butt;stroke-linejoin:miter;stroke-opacity:1"
       d="m 245.06525,436.36218 c -56.01988,12.27447 -95.51412,82.82688 -100,140 -4.6642,59.44578 23.48729,132.68883 70,170 64.3239,51.59881 167.53789,100 250,100 82.46211,0 185.6761,-48.40119 250,-100 46.51271,-37.31117 74.6642,-110.55422 70,-170 -4.48588,-57.17312 -43.98012,-127.72553 -100,-140 -52.50286,-11.50385 -90.127,59.96073 -140,80 -25.50547,10.24825 -52.51263,20 -80,20 -27.48737,0 -54.49453,-9.75175 -80,-20 -49.873,-20.03927 -87.49714,-91.50385 -140,-80 z"
       id="path2818"
       sodipodi:nodetypes="cssssssssss" />
    <path
       sodipodi:type="arc"
       style="fill:#ff0000;fill-rule:evenodd;stroke:#000000;stroke-width:1px;stroke-linecap:butt;stroke-linejoin:miter;stroke-opacity:1"
       id="path2820"
       sodipodi:cx="480"
       sodipodi:cy="439.09448"
       sodipodi:rx="100"
       sodipodi:ry="75"
       d="m 580,439.09448 a 100,75 0 1 1 -200,0 100,75 0 1 1 200,0 z"
       transform="matrix(1.2,0,0,1,-108.71875,242.2677)" />
    <path
       sodipodi:type="arc"
       style="fill:#ff0000;fill-rule:evenodd;stroke:#000000;stroke-width:1px;stroke-linecap:butt;stroke-linejoin:miter;stroke-opacity:1"
       id="path2820-4"
       sodipodi:cx="480"
       sodipodi:cy="439.09448"
       sodipodi:rx="100"
       sodipodi:ry="75"
       d="m 580,439.09448 a 100,75 0 1 1 -200,0 100,75 0 1 1 200,0 z"
       transform="matrix(1.2,0,0,1,-108.71875,256.2677)" />
    <path
       style="fill:#ffffff;fill-opacity:1;stroke:#000000;stroke-width:1.2997185px;stroke-linecap:butt;stroke-linejoin:miter;stroke-opacity:1"
       d="m 468,683.55419 c -53.26272,0 -106.28935,23.67472 -145.72074,52.16211 -28.99055,20.94434 -50.12608,50.68828 -58.27926,81.16082 -10.16321,37.98504 -13.76535,84.29391 14.55851,115.9237 40.35231,45.0621 119.89779,69.56138 189.44149,69.56138 69.5437,0 149.08918,-24.49928 189.44149,-69.56138 C 685.76535,901.17103 682.16321,854.86216 672,816.87712 663.84682,786.40458 642.71129,756.66064 613.72074,735.7163 574.28935,707.22891 521.26272,683.55419 468,683.55419 z m -1.4468,22.772 c 45.32995,0 90.45998,19.43946 124.01861,42.83981 24.67281,17.20427 42.65953,41.61266 49.59841,66.64368 8.64953,31.20197 11.71709,69.26937 -12.38832,95.251 -34.34241,37.01536 -102.04258,57.14346 -161.2287,57.14346 -59.18615,0 -126.88629,-20.1281 -161.22873,-57.14346 -24.1054,-25.98163 -21.03783,-64.04903 -12.3883,-95.251 6.93887,-25.03102 24.92559,-49.43941 49.5984,-66.64368 33.55865,-23.40035 78.68865,-42.83981 124.01863,-42.83981 z"
       id="path2844"
       inkscape:export-xdpi="30"
       inkscape:export-ydpi="30" />
    <rect
       style="fill:#ffff00;fill-opacity:1;stroke:#000000;stroke-linecap:round;stroke-linejoin:bevel;stroke-opacity:1"
       id="rect3668"
       width="60"
       height="48"
       x="437.28125"
       y="672.36218" />
  </g>
</svg>
